<svg width="152" height="153" viewBox="0 0 152 153" fill="none" xmlns="http://www.w3.org/2000/svg">
<circle cx="76" cy="76" r="76" fill="white"/>
<path d="M72.8413 152.287L75.3573 148.324L70.6743 148.139L72.8413 152.287Z" fill="#31287C"/>
<path d="M78.9659 152.269L81.1512 148.13L76.4775 148.324L78.9659 152.269Z" fill="#31287C"/>
<path d="M67.2402 151.852L70.0315 148.083L65.3762 147.556L67.2402 151.852Z" fill="#31287C"/>
<path d="M84.5394 151.824L86.4126 147.528L81.7664 148.083L84.5394 151.824Z" fill="#31287C"/>
<path d="M147.07 76.2778L151 73.7685L146.914 71.5556L147.07 76.2778Z" fill="#31287C"/>
<path d="M146.859 70.9444L150.605 68.1481L146.345 66.25L146.859 70.9444Z" fill="#31287C"/>
<path d="M145.803 76.4445C145.812 37.5648 114.565 6.12966 76.0184 6.21299C37.4716 6.31485 6.21549 37.9074 6.21549 76.7963C6.2063 115.685 37.4532 147.13 76.0092 147.037C114.547 146.935 145.803 115.324 145.803 76.4445ZM137.622 61.6482C137.622 61.6482 137.3 62.8241 137.87 62.9815C138.246 63.0926 138.641 63.2037 138.733 63.5278C138.824 63.8611 138.613 64.176 138.365 64.2408C138.072 64.3334 134.417 65.3519 134.417 65.3519C134.417 65.3519 133.857 65.5186 133.728 65C133.6 64.5463 134.224 64.25 134.224 64.25C137.117 62.4537 136.547 59.7037 136.547 59.7037L137.603 59.3982C137.594 59.4074 137.87 60.3889 137.622 61.6482ZM132.434 47.4074C132.434 47.4074 132.388 48.6204 132.985 48.6389C133.379 48.6574 133.793 48.676 133.949 48.9723C134.123 49.2686 133.985 49.6297 133.765 49.7593C133.508 49.9074 130.193 51.7778 130.193 51.7778C130.193 51.7778 129.67 52.0648 129.431 51.6019C129.22 51.1852 129.743 50.7593 129.743 50.7593C132.14 48.3241 130.928 45.7871 130.928 45.7871L131.892 45.25C131.883 45.2408 132.379 46.1297 132.434 47.4074ZM125.878 35.7871L123.417 38.1945C123.417 38.1945 123.013 38.676 122.71 38.5C122.287 38.2593 122.517 37.8334 122.517 37.8334C122.517 37.8334 122.838 36.9167 122.875 35.5741C122.903 34.2315 122.021 33.2408 122.021 33.2408L122.728 32.5371L125.878 35.7871ZM117.568 28.9723C117.568 28.9723 117.164 28.3889 117.568 28C118.045 27.5371 118.651 28.3056 118.651 28.3056L122.14 31.9167L111.746 42.1204L108 38.2315C107.807 38.0371 107.431 37.5278 107.871 37.1019C108.193 36.7963 108.753 37.1019 108.753 37.1019C109.322 37.3704 109.79 37 109.79 37L117.311 29.6111C117.733 29.2037 117.568 28.9723 117.568 28.9723ZM119.781 51.1389L118.816 51.676C118.816 51.676 118.247 50.7685 118.21 49.5093C118.21 49.5093 118.229 48.6945 117.669 48.463C117.311 48.2963 116.916 48.25 116.751 47.9445C116.567 47.6389 116.714 47.2871 116.925 47.1667C117.2 47.0093 120.166 45.3241 120.166 45.3241C120.166 45.3241 120.57 45.1111 120.846 45.5834C121.085 46.0186 120.552 46.4723 120.552 46.4723C118.302 49.0556 119.781 51.1389 119.781 51.1389ZM115.502 45.9723L112.361 42.713L113.078 42.0093C113.078 42.0093 114.023 42.926 115.373 42.9352C116.714 42.9352 117.614 42.6482 117.614 42.6482C117.614 42.6482 118.045 42.4167 118.275 42.8426C118.44 43.1482 117.953 43.5463 117.953 43.5463L115.502 45.9723ZM117.779 40.9074C117.586 41.0834 116.659 41.1204 117.265 39.9537C117.862 38.7871 117.494 37.7037 117.494 37.7037L118.174 37.0278C118.174 37.0278 119.23 37.4445 120.405 36.8611C121.571 36.2871 121.507 37.2315 121.323 37.4074L117.779 40.9074ZM108.018 20.7315L109.689 21.7037C109.689 21.7037 113.922 23.7408 111.664 27.713C110.167 30.3426 107.963 30.0834 106.641 29.6111C106.641 29.6111 107.072 29.7408 107.045 30.676L106.981 34.8056C106.926 35.3982 107.137 35.6111 107.137 35.6111C107.137 35.6111 107.477 35.9167 107.201 36.426C106.861 37 105.897 36.3334 105.897 36.3334L103.087 34.713C103.087 34.713 102.197 34.3148 102.537 33.7223C102.775 33.2778 103.464 33.5 103.464 33.5C103.464 33.5 103.941 33.6019 104.006 33.0926C104.006 33.0926 104.088 28.7778 104.097 28.5C104.116 28.2408 103.84 28.0926 103.84 28.0926L104.373 27.1297C104.373 27.1297 105.438 27.7685 106.044 26.6852L107.945 23.3611C108.569 22.2778 107.486 21.6852 107.486 21.6852L108.018 20.7315ZM101.784 17.8056C102.123 17.2223 102.922 17.7778 102.922 17.7778L107.275 20.3056L101.113 31.1204C101.113 31.1204 100.875 31.6667 101.279 32.1574C101.279 32.1574 101.719 32.6389 101.499 33.0186C101.187 33.5648 100.617 33.3241 100.37 33.176L95.3744 30.2963C95.1265 30.1574 94.6307 29.7685 94.952 29.2315C95.1632 28.8426 95.806 28.9908 95.806 28.9908C96.4212 29.0926 96.7701 28.6019 96.7701 28.6019L102.004 19.4167C102.279 18.926 102.068 18.7408 102.068 18.7408C102.068 18.7408 101.517 18.2963 101.784 17.8056ZM93.1156 15.6667L93.4094 14.6019L95.2734 15.1111C95.2734 15.1111 99.8737 16.0278 98.6708 20.4445C97.4496 24.8611 93.033 23.2963 93.033 23.2963L91.169 22.7778L91.4628 21.6945C91.4628 21.6945 92.6473 22.0741 92.9687 20.8704L93.9787 17.1574C94.3001 15.9537 93.1156 15.6667 93.1156 15.6667ZM82.8407 26.1111C82.9509 25.6667 83.5937 25.6574 83.5937 25.6574C84.2272 25.6019 84.4384 25.0556 84.4384 25.0556L87.2298 14.8426C87.3859 14.2871 87.138 14.1667 87.138 14.1667C87.138 14.1667 86.4861 13.8704 86.6422 13.3334C86.8166 12.6945 87.7348 13.0463 87.7348 13.0463L92.5738 14.3704L89.2774 26.3889C89.2774 26.3889 89.1764 26.9815 89.6906 27.3519C89.6906 27.3519 90.2324 27.7037 90.113 28.1297C89.9569 28.7315 89.3325 28.6389 89.0663 28.5648L83.511 27.0371C83.2539 26.9445 82.6663 26.7037 82.8407 26.1111ZM76.9917 12.1945C76.9917 12.1945 77.9834 12.1945 79.122 12.7871C79.122 12.7871 80.1412 13.4352 80.4626 12.9167C80.6737 12.5741 80.8941 12.2223 81.2247 12.2315C81.5828 12.2315 81.8123 12.5278 81.8032 12.7963C81.8032 13.0926 81.7664 16.926 81.7664 16.926C81.7664 16.926 81.7664 17.5185 81.2155 17.5C80.7472 17.4908 80.637 16.8056 80.637 16.8056C79.7555 13.4908 76.9733 13.3148 76.9733 13.3148L76.9917 12.1945ZM72.3088 13.4074C73.227 12.6019 74.687 12.176 76.1469 12.1667L76.1286 13.3056C75.3481 13.3056 74.439 13.4908 73.9065 13.8241C73.4015 14.1574 73.1627 14.5834 73.1444 15.1204C73.1444 15.5741 73.3372 15.8797 73.7137 16.0648C74.1085 16.2408 74.5951 16.3797 75.1461 16.4723L76.8815 16.8056C78.4333 17.1389 79.5443 17.713 80.334 18.3426C81.3808 19.1667 82.4826 20.5278 82.4643 21.9537C82.4551 22.5278 82.4 23.0741 82.198 23.5926C81.8032 24.6297 81.0502 25.4074 80.1045 25.9815C79.1403 26.5463 77.8824 26.8148 76.8172 26.8056L76.8264 25.6667C77.3957 25.6297 77.864 25.4815 78.4884 25.1111C79.1679 24.713 79.4984 24.176 79.526 23.4445C79.4984 22.4908 78.7638 21.8426 77.2672 21.463L75.6235 21.0834C74.9992 20.9723 74.4299 20.8056 73.9432 20.6482C73.2545 20.4445 72.6669 20.1297 72.1986 19.7315C71.7395 19.3426 71.3906 18.8889 71.161 18.3519C70.9315 17.8241 70.8305 17.25 70.8396 16.6667C70.858 15.3519 71.3447 14.2685 72.3088 13.4074ZM75.9908 25.7037L75.9725 26.8148C75.9725 26.8148 74.9073 26.8611 73.8147 26.2686C73.8147 26.2686 73.1168 25.8519 72.6302 26.213C72.318 26.4537 72.07 26.7778 71.7211 26.7778C71.3814 26.7685 71.1426 26.4815 71.1518 26.2223C71.1518 25.9167 71.1886 22.4815 71.1886 22.4815C71.1886 22.4815 71.1977 22.0185 71.7395 22.0278C72.2445 22.0278 72.3639 22.713 72.3639 22.713C73.4749 25.9537 75.9908 25.7037 75.9908 25.7037ZM68.2686 22.9074C68.6176 22.9074 68.7277 23.5371 68.7277 23.5371L69.5725 26.8704L65.2018 28L64.9539 27.0186C64.9539 27.0186 66.221 26.6482 66.9005 25.4815C67.5708 24.3148 67.7636 23.3797 67.7636 23.3797C67.7636 23.3797 67.782 22.8889 68.2686 22.9074ZM63.4572 21.0463L63.2276 20.1111C63.2276 20.1111 64.1091 19.3889 64.2009 18.0834C64.2927 16.7686 65.0732 17.3056 65.1375 17.5463L66.3495 22.3797C66.4138 22.6297 65.9823 23.463 65.2844 22.3611C64.5682 21.25 63.4572 21.0463 63.4572 21.0463ZM66.0098 12.75L66.8546 16.0926C66.8546 16.0926 67.0566 16.676 66.7628 16.8519C66.3312 17.1111 66.0833 16.6852 66.0833 16.6852C66.0833 16.6852 65.4681 15.9537 64.3203 15.2685C63.1909 14.5648 61.887 14.8519 61.887 14.8519L61.6483 13.8704L66.0098 12.75ZM55.9553 15.3426L60.8127 14.0926L64.3754 28.25L59.1691 29.5926C58.8936 29.6574 58.2784 29.75 58.1315 29.1389C58.0121 28.713 58.5723 28.3704 58.5723 28.3704C59.0865 28.0093 59.0038 27.4167 59.0038 27.4167L56.4236 17.1667C56.2767 16.6111 56.0012 16.6297 56.0012 16.6297C56.0012 16.6297 55.3034 16.6945 55.1657 16.1482C54.982 15.5 55.9553 15.3426 55.9553 15.3426ZM39.6753 23.5741L50.0145 31.3148C50.0145 31.3148 50.4185 31.75 51.0153 31.5926C51.0153 31.5926 51.6213 31.3704 51.8876 31.7315C52.2549 32.2223 51.7958 32.6667 51.5754 32.8241L46.9843 36.2963C46.764 36.4723 46.2406 36.7685 45.8641 36.2685C45.5978 35.926 45.9743 35.3889 45.9743 35.3889C46.5528 34.7223 46.011 34.3519 46.011 34.3519L44.6429 33.3241L41.9801 35.3334L41.2914 34.4074L43.6696 32.6111L36.3973 27.1482L36.0943 26.2871L39.6753 23.5741ZM40.5385 38.4908L36.8931 28.4723L38.7479 29.8611L41.5944 37.6852C41.5944 37.6852 41.8148 38.2871 42.5953 37.9445C42.5953 37.9445 43.2013 37.7408 43.4676 38.0834C43.8257 38.5834 43.3849 39.0186 43.1646 39.1852L41.5118 40.426C41.3006 40.6019 40.7588 40.9074 40.3915 40.4074C40.1253 40.0463 40.5017 39.5185 40.5017 39.5185C40.8323 38.9815 40.5385 38.4908 40.5385 38.4908ZM29.7861 32.2223L30.686 31.1111C30.686 31.1111 31.2369 30.2963 31.7511 30.7408C32.1368 31.0556 31.9348 31.5648 31.9348 31.5648C31.9348 31.5648 31.8705 31.7778 32.1276 32.3148L34.3864 38.1297L32.8713 37.7963L31.2185 33.4167C30.9798 32.963 30.5666 33.2408 30.5666 33.2408C30.5666 33.2408 30.0065 33.676 29.6209 33.3519C29.0975 32.926 29.7861 32.2223 29.7861 32.2223ZM23.2484 40.1945L26.4438 36.3056C26.4438 36.3056 26.9856 35.5 27.4998 35.926C27.8762 36.2408 27.5732 36.8889 27.5732 36.8889C27.5732 36.8889 27.3804 37.3519 27.8762 37.4908L35.6903 39.1852L38.3072 41.3611C38.3072 41.3611 38.7938 41.6852 39.3356 41.3797C39.3356 41.3797 39.8682 41.0185 40.2171 41.3056C40.6946 41.7037 40.364 42.2315 40.1804 42.4352L36.5258 46.8982C36.3514 47.1204 35.9015 47.5463 35.4332 47.1482C35.0934 46.8704 35.3322 46.2685 35.3322 46.2685C35.5434 45.676 35.1302 45.2686 35.1302 45.2686L32.5041 43.0648L24.6992 41.3889C24.1483 41.2223 23.9371 41.3241 23.9371 41.3241C23.9371 41.3241 23.478 41.6297 23.1015 41.3056C22.5689 40.8982 23.2484 40.1945 23.2484 40.1945ZM12.2574 70.7778L15.6823 70.7685C15.6823 70.7685 16.2975 70.7037 16.3985 71.0463C16.5271 71.5278 16.0588 71.6667 16.0588 71.6667C16.0588 71.6667 15.2048 72.0926 14.2591 73.0371C13.3133 73.9908 13.2582 75.3148 13.2582 75.3148H12.2665V70.7778H12.2574ZM16.6464 72.7963L21.5864 72.7778C21.8435 72.7778 22.5322 73.4074 21.2926 73.8241C20.0714 74.2408 19.5939 75.2778 19.5939 75.2778H18.6482C18.6482 75.2778 18.1707 74.2408 16.9311 73.8334C15.6915 73.4352 16.3985 72.7963 16.6464 72.7963ZM26.7376 81.5648C26.7376 81.8611 26.655 82.4723 26.049 82.4815C25.6082 82.4815 25.4154 81.8611 25.4154 81.8611C25.195 81.2686 24.5982 81.213 24.5982 81.213L14.103 81.2408C13.5337 81.2408 13.4878 81.5185 13.4878 81.5185C13.4878 81.5185 13.3776 82.213 12.8175 82.2223C12.1472 82.2223 12.2482 81.2408 12.2482 81.2408V76.1852L26.7285 76.1482L26.7376 81.5648ZM26.756 75.2871H25.746C25.746 75.2871 25.7001 73.9537 24.7543 73.0185C23.7994 72.0834 22.9546 71.6574 22.9546 71.6574C22.9546 71.6574 22.4863 71.5185 22.6149 71.0371C22.7159 70.713 23.3311 70.7593 23.3311 70.7593H26.756V75.2871ZM27.0682 68.4908C26.9947 68.75 26.7468 69.3334 26.15 69.1574C25.7276 69.0371 25.7184 68.3797 25.7184 68.3797C25.6725 67.75 25.1308 67.5278 25.1308 67.5278L15.0579 64.6019C14.507 64.4445 14.3876 64.6852 14.3876 64.6852C14.3876 64.6852 14.0846 65.3334 13.552 65.176C12.9185 64.9908 13.2766 64.0741 13.2766 64.0741L14.6723 59.213L28.5741 63.2685L27.0682 68.4908ZM28.8128 62.463L27.7569 62.1574C27.7569 62.1574 28.1425 60.9723 26.9397 60.6111L17.4453 57.8426C16.2608 57.5 15.9578 58.713 15.9578 58.713L14.9018 58.3982C14.9018 58.3982 16.5363 51.8982 23.7167 53.9815C30.888 56.0741 28.8128 62.463 28.8128 62.463ZM30.3371 55.8241C29.9514 55.6204 30.08 54.9815 30.08 54.9815C30.1718 54.3519 29.6759 54.0185 29.6759 54.0185L20.4662 48.9723C19.9704 48.7037 19.7959 48.926 19.7959 48.926C19.7959 48.926 19.3644 49.4908 18.8777 49.213C18.2992 48.8889 18.8318 48.0834 18.8318 48.0834L21.2467 43.6297C21.2467 43.6297 21.6232 42.713 22.2108 43.0371C22.7067 43.2963 22.4588 43.963 22.4588 43.963C22.4588 43.963 22.3669 44.2223 22.872 44.5L32.0909 49.5556C32.0909 49.5556 32.6326 49.7871 33.1101 49.3704C33.1101 49.3704 33.5692 48.9167 33.9548 49.1297C34.5058 49.426 34.2762 50.0093 34.1293 50.25L31.3746 55.3519C31.2461 55.6204 30.888 56.1111 30.3371 55.8241ZM45.1387 129.25C42.1729 130.917 39.7304 129.12 39.7304 129.12L40.3456 128.269C40.3456 128.269 42.3565 129.583 44.5878 128.37C44.5878 128.37 45.1938 127.991 45.4601 128.509C45.6805 128.917 45.1387 129.25 45.1387 129.25ZM46.5987 118.241C46.5987 118.241 45.6621 117.509 44.9734 118.472L39.4274 126.157C38.7388 127.12 39.7029 127.796 39.7029 127.796L39.0877 128.648C39.0877 128.648 33.8355 125.074 38.0317 119.259C42.228 113.463 47.2231 117.38 47.2231 117.38L46.5987 118.241ZM48.0311 124.62C47.673 124.361 47.9668 123.769 47.9668 123.769C49.0871 120.694 47.2506 118.704 47.2506 118.704L47.875 117.843C47.875 117.843 48.628 118.407 49.1973 119.5C49.1973 119.5 49.6472 120.565 50.1706 120.343C50.5103 120.204 50.8776 120.046 51.1347 120.241C51.4102 120.435 51.4285 120.796 51.2816 121C51.1255 121.232 48.7841 124.472 48.7841 124.472C48.7841 124.472 48.4351 124.935 48.0311 124.62ZM52.4477 136C52.4477 136 46.5069 133.898 49.1054 127.204C51.7132 120.519 57.4979 123.028 57.4979 123.028L57.1123 124.019C57.1123 124.019 56.0288 123.565 55.6064 124.667L52.1631 133.509C51.7315 134.62 52.8242 135.009 52.8242 135.009L52.4477 136ZM53.2099 136.306L53.5955 135.315C53.5955 135.315 54.6606 135.769 55.1014 134.676L58.5539 125.833C58.9855 124.722 57.8928 124.333 57.8928 124.333L58.2692 123.343C58.2692 123.343 64.2101 125.444 61.6116 132.139C59.0038 138.806 53.2099 136.306 53.2099 136.306ZM67.9473 140.019L62.5114 139.269C62.2451 139.222 61.6666 139.074 61.7585 138.491C61.8136 138.056 62.4288 137.963 62.4288 137.963C62.9981 137.833 63.145 137.287 63.145 137.287L64.5498 127.296C64.6325 126.75 64.3662 126.667 64.3662 126.667C64.3662 126.667 63.7326 126.472 63.7877 125.944C63.8887 125.306 64.7886 125.528 64.7886 125.528L69.5358 126.194L67.8646 137.944C67.8646 137.944 67.8462 138.519 68.3788 138.796C68.3788 138.796 68.9297 139.074 68.8746 139.491C68.8012 140.074 68.2044 140.065 67.9473 140.019ZM72.0884 130.815L71.4273 135.519C71.3906 135.759 70.7111 136.343 70.4815 135.102C70.2612 133.88 69.3613 133.287 69.3613 133.287L69.4807 132.38C69.4807 132.38 70.5183 132.074 71.0784 130.944C71.6293 129.833 72.1251 130.565 72.0884 130.815ZM74.1269 130.157C74.1269 130.157 74.0901 130.759 73.7779 130.806C73.3096 130.87 73.2362 130.398 73.2362 130.398C73.2362 130.398 72.9607 129.537 72.1894 128.5C71.4273 127.463 70.2061 127.259 70.2061 127.259L70.3346 126.296L74.586 126.889L74.1269 130.157ZM83.2264 140.111L77.7538 140.676C77.4967 140.704 76.8999 140.694 76.8448 140.111C76.7897 139.685 77.3682 139.444 77.3682 139.444C77.9099 139.176 77.9007 138.602 77.9007 138.602L76.8999 128.574C76.8448 128.028 76.5785 128.009 76.5785 128.009C76.5785 128.009 75.899 127.972 75.8531 127.444C75.7888 126.806 76.7254 126.806 76.7254 126.806L81.4818 126.306L82.6479 138.111C82.6479 138.111 82.7673 138.667 83.3458 138.815C83.3458 138.815 83.961 138.935 83.9977 139.361C84.0711 139.935 83.4927 140.065 83.2264 140.111ZM84.5303 134.713C84.0252 133.574 82.9968 133.222 82.9968 133.222L82.9142 132.315C82.9142 132.315 83.8416 131.759 84.1079 130.537C84.3742 129.324 85.0445 129.926 85.0628 130.167L85.5403 134.889C85.5678 135.13 85.0445 135.852 84.5303 134.713ZM86.6973 129.741C86.2657 129.917 86.082 129.491 86.082 129.491C86.082 129.491 85.6046 128.713 84.6221 127.898C83.6396 127.083 82.3908 127.167 82.3908 127.167L82.299 126.204L86.5687 125.759L86.8901 129.037C86.8901 129.037 87.0003 129.62 86.6973 129.741ZM93.0421 138.324C92.7942 138.407 92.2157 138.546 92.0137 137.982C91.8668 137.593 92.3627 137.222 92.3627 137.222C92.8218 136.824 92.684 136.278 92.684 136.278L89.2958 126.796C89.1122 126.278 88.8551 126.333 88.8551 126.333C88.8551 126.333 88.1939 126.463 88.0195 125.963C87.8083 125.361 88.7081 125.13 88.7081 125.13L93.1982 123.5L97.8536 136.565L93.0421 138.324ZM93.9604 123.194L97.9913 121.722L99.1024 124.815C99.1024 124.815 99.3411 125.352 99.0748 125.556C98.6984 125.824 98.4137 125.454 98.4137 125.454C98.4137 125.454 97.7526 124.815 96.614 124.269C95.4662 123.722 94.2725 124.102 94.2725 124.102L93.9604 123.194ZM96.3477 129.824L96.0355 128.963C96.0355 128.963 96.816 128.204 96.7793 126.944C96.7334 125.704 97.5139 126.12 97.6057 126.352L99.1942 130.806C99.2768 131.037 98.9463 131.87 98.175 130.898C97.422 129.907 96.3477 129.824 96.3477 129.824ZM98.6433 136.287L98.3219 135.389C98.3219 135.389 99.488 134.907 100.011 133.75C100.544 132.593 100.636 131.676 100.636 131.676C100.636 131.676 100.617 131.204 101.095 131.167C101.416 131.139 101.572 131.713 101.572 131.713L102.683 134.815L98.6433 136.287ZM107.201 132.398C106.971 132.546 106.448 132.815 106.127 132.324C105.897 131.972 106.292 131.491 106.292 131.491C106.632 130.991 106.365 130.491 106.365 130.491L100.829 122.111C100.535 121.657 100.287 121.759 100.287 121.759C100.287 121.759 99.6808 122.037 99.387 121.602C99.0289 121.065 99.8553 120.62 99.8553 120.62L103.84 117.954L111.462 129.528L107.201 132.398ZM108.128 120.454C107.807 119.259 108.67 119.463 108.799 119.667L111.397 123.62C111.535 123.824 111.397 124.722 110.433 123.944C109.46 123.176 108.386 123.352 108.386 123.352L107.89 122.593C107.89 122.583 108.45 121.667 108.128 120.454ZM110.048 118.546C109.745 118.907 109.386 118.62 109.386 118.62C109.386 118.62 108.606 118.148 107.366 117.889C106.118 117.639 105.043 118.296 105.043 118.296L104.511 117.5L108.092 115.093L109.891 117.843C109.891 117.833 110.259 118.287 110.048 118.546ZM112.15 129.093L111.618 128.287C111.618 128.287 112.646 127.546 112.885 126.269C113.133 125.019 113.013 124.12 113.013 124.12C113.013 124.12 112.885 123.676 113.335 123.528C113.638 123.426 113.913 123.935 113.913 123.935L115.731 126.676L112.15 129.093ZM76 121.787C51.2632 121.852 31.2277 101.685 31.2277 76.7315C31.2277 51.7871 51.2724 31.5093 76 31.4445C100.737 31.3889 120.781 51.5648 120.781 76.5093C120.791 101.463 100.737 121.732 76 121.787ZM119.23 52.4167L120.212 51.8519C120.534 52.3426 120.892 52.6667 121.525 53.0278C122.177 53.4167 122.82 53.4537 123.454 53.1019C124.262 52.6111 124.454 51.6389 124.032 50.1389L123.545 48.5185C123.353 47.9074 123.196 47.3426 123.095 46.8241C122.948 46.1204 122.912 45.4445 123.022 44.8519C123.114 44.2593 123.352 43.7223 123.692 43.25C124.032 42.7871 124.464 42.4074 124.987 42.1297C126.135 41.4723 127.301 41.3426 128.513 41.75C129.679 42.1574 130.763 43.2315 131.488 44.4815L130.496 45.0463C130.111 44.3704 129.505 43.6574 128.944 43.3704C128.412 43.0834 127.925 43.0926 127.457 43.3426C127.062 43.5741 126.888 43.8982 126.934 44.3148C126.97 44.7593 127.09 45.2408 127.282 45.7778L127.852 47.4537C128.338 48.9815 128.394 50.2408 128.256 51.2593C128.054 52.5648 127.429 54.2223 126.208 54.926C125.703 55.213 125.207 55.4352 124.656 55.5093C123.582 55.6852 122.535 55.426 121.571 54.8797C120.607 54.3426 119.753 53.3611 119.23 52.4167ZM123.307 60.2871C123.307 60.2871 123.518 59.5 123.049 59.1297C122.737 58.8889 122.352 58.75 122.269 58.4167C122.168 58.0834 122.388 57.7778 122.636 57.7037C122.93 57.6111 126.208 56.6945 126.208 56.6945C126.208 56.6945 126.64 56.5648 126.796 57.1019C126.915 57.5834 126.291 57.8982 126.291 57.8982C123.527 59.8797 124.454 62.25 124.454 62.25L123.389 62.5556C123.389 62.5463 123.059 61.5278 123.307 60.2871ZM123.628 63.3704L124.711 63.0648C124.904 63.6019 125.18 64.0185 125.703 64.5185C126.254 65.0556 126.869 65.2315 127.567 65.0463C128.467 64.7685 128.889 63.8611 128.825 62.3056L128.733 60.6204C128.669 59.9723 128.66 59.3704 128.687 58.8611C128.697 58.1204 128.834 57.4723 129.082 56.9167C129.312 56.3611 129.661 55.8982 130.101 55.5278C130.551 55.1574 131.066 54.8889 131.626 54.75C132.874 54.3704 134.059 54.5371 135.124 55.2315C136.152 55.8889 136.96 57.1852 137.374 58.5926L136.29 58.9074C136.061 58.1389 135.647 57.3241 135.17 56.8982C134.72 56.5093 134.243 56.3797 133.728 56.5278C133.297 56.6482 133.049 56.926 132.985 57.3426C132.93 57.7778 132.93 58.2778 132.985 58.8519L133.15 60.6111C133.26 62.2223 133.021 63.4537 132.645 64.3982C132.149 65.6389 131.167 67.0926 129.798 67.4723C129.238 67.6204 128.715 67.7315 128.164 67.6852C127.08 67.5834 126.116 67.0834 125.308 66.3148C124.519 65.5556 123.913 64.4074 123.628 63.3704ZM132.452 68.1204C139.917 67.9445 139.825 74.6204 139.825 74.6204L138.723 74.6389C138.723 74.6389 138.733 73.4074 137.493 73.4352L127.613 73.6667C126.383 73.6945 126.429 74.9445 126.429 74.9445L125.327 74.963C125.336 74.963 124.978 68.2963 132.452 68.1204ZM125.363 75.8334L126.456 75.8148C126.456 75.8148 126.456 77.0556 127.686 77.0185L137.567 76.7871C138.806 76.7593 138.742 75.5186 138.742 75.5186L139.835 75.5C139.835 75.5 140.211 82.1574 132.737 82.3334C125.272 82.5093 125.363 75.8334 125.363 75.8334Z" fill="#31287C"/>
<path d="M61.6758 151L64.7335 147.463L60.1332 146.574L61.6758 151Z" fill="#31287C"/>
<path d="M90.0671 150.981L91.6189 146.556L87.0186 147.435L90.0671 150.981Z" fill="#31287C"/>
<path d="M56.1757 149.722L59.4997 146.426L54.982 145.185L56.1757 149.722Z" fill="#31287C"/>
<path d="M95.5213 149.704L96.7334 145.176L92.2157 146.407L95.5213 149.704Z" fill="#31287C"/>
<path d="M50.8408 148.037L54.3943 145.009L49.9869 143.445L50.8408 148.037Z" fill="#31287C"/>
<path d="M100.865 148.019L101.738 143.417L97.321 144.982L100.865 148.019Z" fill="#31287C"/>
<path d="M45.6529 145.972L49.4084 143.213L45.1295 141.306L45.6529 145.972Z" fill="#31287C"/>
<path d="M106.062 145.944L106.604 141.268L102.316 143.185L106.062 145.944Z" fill="#31287C"/>
<path d="M40.6211 143.509L44.5786 141.046L40.4558 138.824L40.6211 143.509Z" fill="#31287C"/>
<path d="M111.094 143.472L111.278 138.787L107.155 141.009L111.094 143.472Z" fill="#31287C"/>
<path d="M35.8005 140.676L39.9141 138.509L35.9657 135.972L35.8005 140.676Z" fill="#31287C"/>
<path d="M111.82 138.472L115.942 140.63L115.777 135.944L111.82 138.472Z" fill="#31287C"/>
<path d="M120.524 132.407L124.932 133.917L124.078 129.315L120.524 132.407Z" fill="#31287C"/>
<path d="M116.282 135.602L120.561 137.444L120.056 132.787L116.282 135.602Z" fill="#31287C"/>
<path d="M23.9463 125.583L22.7526 130.111L27.2519 128.926L23.9463 125.583Z" fill="#31287C"/>
<path d="M27.7018 129.352L26.8386 133.972L31.2369 132.435L27.7018 129.352Z" fill="#31287C"/>
<path d="M31.191 137.491L35.4607 135.639L31.7144 132.824L31.191 137.491Z" fill="#31287C"/>
<path d="M124.528 128.889L129.027 130.074L127.843 125.537L124.528 128.889Z" fill="#31287C"/>
<path d="M20.5029 121.556L18.9603 125.981L23.5422 125.139L20.5029 121.556Z" fill="#31287C"/>
<path d="M131.708 121.019L136.327 121.519L134.49 117.213L131.708 121.019Z" fill="#31287C"/>
<path d="M128.256 125.074L132.828 125.935L131.313 121.5L128.256 125.074Z" fill="#31287C"/>
<path d="M17.3351 117.269L15.4803 121.583L20.1081 121.074L17.3351 117.269Z" fill="#31287C"/>
<path d="M14.5161 112.768L12.3492 116.907L16.9953 116.759L14.5161 112.768Z" fill="#31287C"/>
<path d="M134.839 116.704L139.486 116.852L137.355 112.704L134.839 116.704Z" fill="#31287C"/>
<path d="M12.0186 108.056L9.55777 112.037L14.2131 112.222L12.0186 108.056Z" fill="#31287C"/>
<path d="M137.649 112.167L142.295 111.972L139.853 107.991L137.649 112.167Z" fill="#31287C"/>
<path d="M9.88836 103.167L7.15207 106.954L11.7523 107.5L9.88836 103.167Z" fill="#31287C"/>
<path d="M140.119 107.426L144.729 106.889L141.992 103.111L140.119 107.426Z" fill="#31287C"/>
<path d="M8.12539 98.1389L5.09528 101.713L9.668 102.602L8.12539 98.1389Z" fill="#31287C"/>
<path d="M142.231 102.537L146.785 101.648L143.783 98.0648L142.231 102.537Z" fill="#31287C"/>
<path d="M6.74803 92.9907L3.46082 96.3148L7.9509 97.5555L6.74803 92.9907Z" fill="#31287C"/>
<path d="M143.966 97.4815L148.447 96.25L145.188 92.9167L143.966 97.4815Z" fill="#31287C"/>
<path d="M5.75637 87.7407L2.23959 90.824L6.60113 92.3796L5.75637 87.7407Z" fill="#31287C"/>
<path d="M145.344 92.2778L149.715 90.7037L146.216 87.6297L145.344 92.2778Z" fill="#31287C"/>
<path d="M5.14117 82.4352L1.40402 85.2407L5.66455 87.1389L5.14117 82.4352Z" fill="#31287C"/>
<path d="M146.308 86.9907L150.568 85.0833L146.85 82.287L146.308 86.9907Z" fill="#31287C"/>
<path d="M4.92079 77.1018L1 79.6204L5.09525 81.8148L4.92079 77.1018Z" fill="#31287C"/>
<path d="M146.886 81.6389L150.991 79.426L147.07 76.9167L146.886 81.6389Z" fill="#31287C"/>
<path d="M5.10453 71.7315L1.00928 73.9538L4.92088 76.463L5.10453 71.7315Z" fill="#31287C"/>
<path d="M5.68292 66.3981L1.42239 68.2963L5.15036 71.0833L5.68292 66.3981Z" fill="#31287C"/>
<path d="M6.64704 61.1019L2.25797 62.676L5.78392 65.7408L6.64704 61.1019Z" fill="#31287C"/>
<path d="M146.271 65.6481L149.797 62.5648L145.408 60.9908L146.271 65.6481Z" fill="#31287C"/>
<path d="M8.00601 55.8796L3.51593 57.1296L6.78478 60.4445L8.00601 55.8796Z" fill="#31287C"/>
<path d="M145.279 60.3982L148.567 57.0741L144.086 55.8427L145.279 60.3982Z" fill="#31287C"/>
<path d="M9.73224 50.8426L5.1687 51.7315L8.18964 55.287L9.73224 50.8426Z" fill="#31287C"/>
<path d="M143.911 55.2407L146.941 51.6759L142.387 50.787L143.911 55.2407Z" fill="#31287C"/>
<path d="M11.835 45.9444L7.22556 46.4815L9.96184 50.2592L11.835 45.9444Z" fill="#31287C"/>
<path d="M142.167 50.2037L144.912 46.4259L140.294 45.8889L142.167 50.2037Z" fill="#31287C"/>
<path d="M14.2958 41.1852L9.6496 41.3889L12.1012 45.3703L14.2958 41.1852Z" fill="#31287C"/>
<path d="M140.037 45.3241L142.507 41.3426L137.851 41.1482L140.037 45.3241Z" fill="#31287C"/>
<path d="M75.9357 38.6852C55.2024 38.7315 38.3072 55.787 38.3163 76.7129C38.3072 97.6296 55.1932 114.62 75.9265 114.565C96.6691 114.518 113.546 97.4444 113.555 76.5278C113.555 55.6111 96.6782 38.6296 75.9357 38.6852ZM76 112.139C56.5521 112.194 40.7864 96.324 40.7955 76.7037C40.8047 57.0926 56.5705 41.1481 76.0184 41.1018C95.4662 41.0555 111.232 56.9166 111.232 76.5278C111.223 96.1481 95.457 112.093 76 112.139Z" fill="#31287C"/>
<path d="M17.0964 36.6667L12.4594 36.5L14.5988 40.6574L17.0964 36.6667Z" fill="#31287C"/>
<path d="M137.557 40.6111L139.724 36.4537L135.078 36.6019L137.557 40.6111Z" fill="#31287C"/>
<path d="M76.0092 33.8889C52.6038 33.9537 33.6518 53.1296 33.6518 76.7222C33.6518 100.324 52.6038 119.407 76 119.343C99.3962 119.287 118.367 100.111 118.376 76.5185C118.367 52.9167 99.4054 33.8333 76.0092 33.8889ZM75.9357 117.528C53.5771 117.583 35.3873 99.2685 35.3964 76.7222C35.3964 54.1759 53.5771 35.787 75.9449 35.7315C98.3035 35.6759 116.493 53.9722 116.493 76.5185C116.484 99.0648 98.2943 117.472 75.9357 117.528Z" fill="#31287C"/>
<path d="M72.6669 107.602C71.5008 106.25 72.0792 102.87 69.4715 102.87C68.9022 104.796 67.3229 106.481 67.8462 108.537C69.848 110.528 73.2545 110.37 75.9174 110.157C77.6987 108.426 77.1111 105.556 76.7346 103.519C74.3289 103.324 74.5952 106.556 72.6669 107.602ZM69.9031 107.833C69.5725 107.704 69.3705 107.491 69.3429 107.13C69.5358 106.315 70.7203 106.565 70.6652 107.306C70.5183 107.648 70.2428 107.815 69.9031 107.833ZM74.9441 108.5C74.5217 108.389 74.3748 107.963 74.5125 107.611C74.7421 107 75.8164 107.278 75.7062 107.972C75.5042 108.167 75.3389 108.833 74.9441 108.5Z" fill="#31287C"/>
<path d="M100.755 86.6945C100.177 87.3426 100.076 88.1296 99.7727 88.8611C100.737 90.1019 102.27 91.0185 102.895 92.5278C100.691 93.213 97.5138 91.0556 96.412 94.0833C97.3118 95.4352 99.2768 96.0463 100.415 97.2963C101.637 97.75 103.179 97.0556 103.794 95.8333C104.511 93.4074 107.926 91.1204 105.971 88.6574L100.755 86.6945ZM101.738 95.2593C101.499 95.6204 101.187 96.1019 100.737 95.8889C100.076 95.463 100.241 94.7037 100.801 94.4815C101.159 94.4537 101.866 94.6667 101.738 95.2593ZM104.887 91.0185C104.474 91.5185 104.143 91.1204 103.73 90.8519C103.39 90.463 103.85 89.75 104.382 89.8333C104.915 89.9259 104.961 90.6389 104.887 91.0185Z" fill="#31287C"/>
<path d="M94.9887 95.5277C92.7942 96.9814 95.0622 99.75 95.255 101.407C93.4829 101.435 91.977 99.4351 90.1406 99.6759C89.6906 99.9722 89.1122 100.63 89.3325 101.194C90.7007 102.852 90.5262 106.657 93.639 105.889C95.6958 104.259 97.7342 102.676 99.3503 100.426C99.5247 98.0555 96.917 96.8703 94.9887 95.5277ZM92.8768 104.185C92.4728 104.028 92.3443 103.593 92.4728 103.25C92.7024 102.63 93.7492 102.972 93.6298 103.676C93.5471 103.944 93.235 104.167 92.8768 104.185ZM97.9087 99.8981C97.7342 100.306 97.3027 100.435 96.9813 100.315C96.5497 99.9444 96.9078 99.25 97.4037 99.1388C97.5965 99.3611 98.175 99.4814 97.9087 99.8981Z" fill="#31287C"/>
<path d="M84.4568 106.954L83.9702 107.065C82.5653 105.546 81.6471 102.148 78.8741 103.306C78.3966 105.222 78.4976 107.574 79.021 109.361C81.5736 111.806 85.4393 109.481 88.4051 108.685C91.7383 106.518 87.7991 103.602 87.3767 101.111C84.6037 101.509 85.2281 104.991 84.4568 106.954ZM81.4634 108.065C81.1788 107.981 80.5819 108.259 80.5544 107.657C80.4901 107.102 81.1329 106.759 81.592 106.954C81.9133 107.259 81.8123 107.796 81.4634 108.065ZM87.7073 106.63C87.4869 106.565 87.34 106.806 87.2574 106.926C86.8258 107.074 86.4126 106.546 86.5871 106.148C86.8993 105.157 88.1297 105.861 87.7073 106.63Z" fill="#31287C"/>
<path d="M45.9008 86.6944C46.8282 85.5185 48.2331 84.8981 49.2707 83.9629C49.1146 83 48.7749 82.0926 48.8391 81.2129L44.5694 82.074C43.7889 82.7592 43.44 83.3055 43.1829 84.2407C44.3215 86.6851 44.8449 89.5 46.3324 91.6666C48.5178 92.8426 49.9777 90.4629 51.7315 89.824C51.7223 86.1574 47.5261 88.3611 45.9008 86.6944ZM45.102 83.8703C45.2397 83.0277 46.4793 83.3148 46.3232 84.074C46.1855 84.4259 45.9835 84.6203 45.6254 84.6389C45.2948 84.5092 45.1295 84.2314 45.102 83.8703ZM47.6455 89.8796L47.1129 89.5277L47.6822 88.6203C47.976 88.8148 48.38 89 48.3249 89.4629C48.2974 89.7963 47.9393 89.8148 47.6455 89.8796Z" fill="#31287C"/>
<path d="M52.4385 97.4907C52.108 97.3611 51.4469 97.6111 51.557 96.9074L53.4578 93.0463C53.017 91.6482 51.8325 91.1296 50.7398 92.2963C49.6104 93.2593 47.875 93.7408 48.2423 95.5093C50.0144 97.6019 51.805 100.056 54.0179 101.593C56.0196 101.111 56.7174 98.8519 58.1131 97.463C56.7174 94.9259 54.2291 97.4722 52.4385 97.4907ZM51.1989 94.9815C51.1255 95.3611 50.8133 95.3241 50.5103 95.3796C50.1889 95.0926 49.739 94.3611 50.5103 94.2037C50.951 94.0556 51.3642 94.5926 51.1989 94.9815ZM55.1105 98.9907C55.0738 99.3148 54.6606 99.2963 54.4311 99.3981C54.1189 99.1852 53.926 98.9815 53.9077 98.6296C54.027 97.7685 55.5513 98.1667 55.1105 98.9907Z" fill="#31287C"/>
<path d="M61.079 104.509C60.5005 103.194 61.4004 101.657 61.6024 100.167L59.1599 98.5648L56.7174 102.093C56.1849 105.407 60.8953 106.343 62.9889 108.065L64.2193 108.009C66.8178 107.491 66.6158 104.546 67.6534 102.667C65.2018 100.722 63.347 104.12 61.079 104.509ZM58.4712 102.806C58.407 102.5 58.7559 101.963 59.1874 102.074C59.518 102.222 59.6833 102.491 59.7108 102.843C59.417 103.167 58.7008 103.63 58.4712 102.806ZM64.4672 105.528C64.3111 105.769 64.0815 106.13 63.7877 105.917C63.4847 105.731 63.2919 105.519 63.2643 105.167C63.5949 104.537 64.7151 104.759 64.4672 105.528Z" fill="#31287C"/>
<path d="M50.2348 81.5278C52.6405 81.9908 55.7992 81.4074 58.3426 81.1111L57.9662 77.3796C55.386 76.7963 52.5028 77.2037 49.9501 77.25L50.2348 81.5278Z" fill="#31287C"/>
<path d="M102.592 75.1204C102.95 75.8704 102.472 76.4908 102.619 77.1759C104.079 78.0556 105.98 78.6111 107.008 79.7963C105.282 80.3704 103.703 81.1297 101.829 81.5278C101.664 82.7037 100.801 83.9167 101.251 85.0648C103.244 85.5093 105.007 86.8334 107.173 86.463C109.037 85.3889 108.982 83.1389 109.441 81.3889C109.552 79.4908 109.552 77.2871 109.175 75.5C107.614 73.213 104.593 74.8889 102.592 75.1204ZM106.641 83.8889L106.301 84.4352C105.741 84.5 105.043 83.8704 105.539 83.3519C105.741 82.7963 107.109 83.0185 106.641 83.8889ZM107.862 77.2963C107.697 77.9537 107.183 77.6945 106.806 77.6204C106.365 77.25 106.476 76.2963 107.247 76.2778C107.596 76.5093 108.073 76.8334 107.862 77.2963Z" fill="#31287C"/>
<path d="M50.1797 75.3426C52.7324 75.8148 55.184 75.2963 57.7734 75.2037L57.7183 71.5C55.5146 71 53.1364 71.3982 50.9786 70.9445C50.4093 72.3519 49.8308 73.9259 50.1797 75.3426Z" fill="#31287C"/>
<path d="M90.6731 48.2222C90.9302 49.25 90.6089 50.1481 90.2875 51.037C89.3785 53 90.3426 54.4907 92.3535 55.037L95.5856 50.4167C96.0539 48.25 93.639 47.787 92.3259 46.6759C90.4252 46.1018 88.6439 44.4259 86.5503 44.9259C84.6405 46.0741 84.466 48.6944 83.6947 50.6574C86.3575 52.5648 88.2674 48.6852 90.6731 48.2222ZM93.5104 50.5C93.3543 51 93.0513 50.8055 92.7024 50.8241C92.3627 50.6944 92.4086 50.3704 92.2984 50.1389C92.5004 49.1667 94.1256 49.8055 93.5104 50.5ZM86.9268 47.2222C87.0554 46.3704 88.295 46.6574 88.1389 47.4167C87.946 47.9815 87.5237 48.1296 87.0646 47.9167C87.0829 47.6574 86.8074 47.4074 86.9268 47.2222Z" fill="#31287C"/>
<path d="M93.9603 56.0741C95.4938 58.5371 98.175 55.6852 100.131 55.2686L100.553 55.5371C100.434 57.8334 96.2651 60.2223 99.2585 62.2778C100.948 60.8149 104.465 60.9815 104.41 58.0463C103.179 55.3704 100.847 53.5001 98.7167 51.4352C96.1273 51.2686 94.9153 54.3334 93.9603 56.0741ZM102.334 57.463C102.748 57.7501 102.784 58.1019 102.656 58.5371C102.27 58.8797 101.471 58.9445 101.38 58.3056C101.279 57.7963 101.967 57.3982 102.334 57.463ZM98.8177 54.1575C98.6892 54.4908 98.4045 54.6575 98.0648 54.676C97.7618 54.4815 97.4404 54.1852 97.6148 53.7871C97.7342 53.3519 98.2209 53.2501 98.4963 53.3426C98.5698 53.6389 99.1207 53.8241 98.8177 54.1575Z" fill="#31287C"/>
<path d="M100.333 65.0278C100.709 67.5741 103.877 65.8148 105.649 66.2037C105.264 68.25 103.051 68.9259 102.013 70.5555C102.417 71.4815 101.976 72.5741 102.693 73.287L107.21 72.5741C110.553 70.5 107.44 66.4259 107.32 63.6111C106.834 61.3426 104.153 61.4629 102.491 62.324C101.591 62.9537 99.2768 63.1389 100.333 65.0278ZM106.255 70.2592C106.072 70.6574 105.704 71.1018 105.264 70.8796C105.199 70.5833 104.97 70.2685 104.942 70.074C105.098 69.6759 105.53 69.537 105.87 69.6574C106.182 69.6944 106.145 70.0185 106.255 70.2592ZM103.794 63.9629C104.061 63.7129 104.162 63.2685 104.566 63.4444C104.869 63.6296 105.062 63.8518 105.08 64.2129C104.896 64.7685 104.456 64.9074 104.006 64.7037C103.767 64.5463 103.648 64.2037 103.794 63.9629Z" fill="#31287C"/>
<path d="M66.1108 47.074C67.479 47.9814 68.388 49.574 69.6827 50.6851C70.3346 50.6018 70.7754 50.287 71.2436 50.0925C70.858 47.787 71.8038 44.5 69.2419 43.2407C66.0465 43.8796 62.0707 44.6944 60.5005 47.9166C60.3628 50.2222 62.0339 51.8148 63.1725 53.5925C67.2861 53.3796 64.7794 49.0092 66.1108 47.074ZM67.782 45.7962C68.085 45.0462 69.3705 45.5555 68.9022 46.2592C68.6084 46.3333 68.4614 46.574 68.1033 46.5925C67.5524 46.4074 67.7452 46.1111 67.782 45.7962ZM62.5849 48.8703C62.5665 48.5092 62.8603 47.6851 63.3194 47.9907C63.9163 48.1296 63.7602 48.6203 63.6959 49.0092C63.3011 49.0833 62.8328 49.2777 62.5849 48.8703Z" fill="#31287C"/>
<path d="M55.2575 60.2592C57.9662 58.7963 54.6331 56.1018 54.8994 53.8889C57.2225 53.8055 59.8302 57.2037 61.6391 54.6389L58.6916 49.824C55.3768 48.4074 53.2649 52.75 50.9878 54.8426C50.9418 57.537 53.3568 58.7592 55.2575 60.2592ZM57.9754 52.2315C57.6999 52.6574 57.351 52.6852 56.9103 52.5648C56.6991 52.5092 56.7358 52.2037 56.6991 52C57.0204 51.3611 58.0029 51.4074 57.9754 52.2315ZM52.714 55.6944C52.8701 54.9444 54.1372 55.1759 53.8801 56.1111C53.5771 56.1759 53.3659 56.6389 53.0537 56.3518C52.8793 56.2222 52.4202 56.0277 52.714 55.6944Z" fill="#31287C"/>
<path d="M49.739 69.3519C52.3651 66.7223 47.774 65.6019 47.5169 63.3889C49.7849 62.4815 53.2374 65.7593 54.073 61.7223C52.3284 60.4908 50.8225 57.4537 48.2423 58.5834C46.562 60.8056 45.2948 63.5556 44.5602 66.1482C45.2856 68.4075 47.9852 68.5463 49.739 69.3519ZM49.8584 60.3889C50.0971 60.8056 50.1155 60.9167 50.0696 61.3889L49.1238 61.5278C48.7657 61.0371 49.2707 60.2686 49.8584 60.3889ZM46.3416 65.8519C46.6905 65.3056 47.6271 65.9352 47.4251 66.3889C47.2874 66.7315 47.0119 66.8982 46.663 66.9167C46.2589 66.6482 46.2222 66.2871 46.3416 65.8519Z" fill="#31287C"/>
<path d="M47.3149 79.7778C48.2974 79.8241 48.7381 78.75 48.5912 77.7963C47.0027 76.3426 45.0744 76.176 43.6328 75.1482C45.0194 73.926 46.9843 73.6019 48.481 72.6111C50.3542 70.0926 46.112 70.3889 44.9734 69.2871C44.046 69.2871 43.0911 69.8519 42.6871 70.8704C42.3473 73.6297 41.824 76.5371 42.5218 79.3704C43.6145 81.1019 45.8274 80.0093 47.3149 79.7778ZM44.9826 71.0926C45.2856 71.2871 45.4693 71.5093 45.4968 71.8611C45.1387 72.0463 44.9 72.9167 44.3858 72.4074C44.0736 71.8704 44.3307 71.0834 44.9826 71.0926ZM44.6153 77.676C44.9184 77.8704 45.5887 78.1389 45.0653 78.5741C44.9275 79.0741 44.6153 78.8704 44.3031 78.8426C43.8624 78.463 43.9634 77.6667 44.6153 77.676Z" fill="#31287C"/>
<path d="M80.9491 52.6852C74.7695 53.5185 69.8387 56.5926 65.5782 60.4444L65.872 60.6389C71.1885 58.8333 76.4499 59.2963 81.0961 56.537C81.243 55.2685 81.3623 53.9074 80.9491 52.6852Z" fill="#31287C"/>
<path d="M72.5291 85.3425C74.7879 86.3981 80.6278 88.0648 82.5561 87.4351C82.5561 87.4351 82.6662 81.0925 82.9325 78.1018C86.587 77.9259 87.2849 78.0555 90.7649 77.3518C91.7566 77.2314 92.3442 76.5555 91.9311 75.287C89.7641 70.6481 86.9176 67.9814 83.4008 65.537C80.1687 64.2777 81.3348 61.037 80.9124 59.0555L78.6169 59.7592L78.9016 59.9629C80.2789 60.6944 80.3523 62.9444 80.1779 64.2685C80.1595 66.1296 77.2304 66.3518 78.4516 68.25C78.2313 68.7037 77.8364 68.9537 77.3314 68.9629C72.9974 66.1296 68.1401 65.1666 63.7051 62.8703C61.4554 65.0648 59.619 68.5462 59.2517 71.6296C59.3252 78.5925 59.9679 86.5092 64.5774 91.9074C68.4339 97.574 75.5684 101.565 82.2622 101.259C82.7489 95.5277 81.8949 95.0925 82.5928 89.4166C77.2396 88.824 74.9349 88.6944 70.959 86.2777C70.6651 85.824 70.252 85.4722 70.8212 84.9814C71.2344 84.5833 72.1343 85.1759 72.5291 85.3425ZM75.4215 79.75C75.045 79.9351 74.7788 80.3518 74.4298 80.1296C74.0166 79.9444 73.5943 79.574 73.8055 79.1111C74.2737 78.3981 76.1194 78.6759 75.4215 79.75ZM76.5876 77.5C76.2204 77.6759 75.9449 78.1018 75.596 77.8611C75.2011 77.6944 74.7696 77.324 74.9808 76.8611C75.4399 76.1388 77.2947 76.4166 76.5876 77.5ZM75.7888 75.1296C75.7612 74.7777 76.0367 74.0925 76.6152 74.2222C76.9182 74.4166 77.313 74.5925 77.2579 75.0648C76.9641 75.6574 76.0734 76.0092 75.7888 75.1296ZM77.1753 72.9722C77.0651 73.3981 76.6336 73.5555 76.303 73.4166C75.8623 73.3055 75.8714 72.6296 75.9724 72.3518C76.3122 71.5555 77.6436 72.25 77.1753 72.9722ZM76.1561 70.25C76.5509 70.6759 76.404 71.4351 75.8255 71.6666L74.9349 71.074C74.9716 70.5092 75.5868 69.8148 76.1561 70.25ZM73.8238 69.1481C73.934 68.7129 74.3564 68.574 74.6961 68.7129C75.1369 68.824 75.1552 69.4351 75.0634 69.7129C74.9624 70.1574 74.2829 70.1388 74.0166 70.0463C73.9432 69.75 73.3739 69.4537 73.8238 69.1481ZM73.4473 80.3333C73.8789 80.4537 74.0258 80.8888 73.8881 81.2222C73.6769 81.9351 73.0984 81.8148 72.6026 81.6481C72.2537 81 72.7679 80.2314 73.4473 80.3333ZM72.3363 67.9351C72.8781 68.1296 73.1076 68.6851 72.9607 69.1851C72.6577 69.7685 71.7119 69.4074 71.5558 68.8796C71.3354 68.3055 72.0976 68.2777 72.3363 67.9351ZM63.852 71.4166C64.2927 71.3703 64.9447 71.7962 64.66 72.3796C64.5498 72.8148 64.0999 72.6018 63.7234 72.7963C63.1909 72.4351 63.1174 71.6203 63.852 71.4166ZM62.493 73.7685C63.1266 72.6481 64.4396 74.2685 63.2368 74.8518C62.8603 74.5092 61.9696 74.4537 62.493 73.7685ZM61.887 76.2685C61.9972 75.324 63.4112 75.4814 63.2827 76.3425C63.1725 76.7777 62.7134 76.824 62.4104 77.0555C62.1165 76.8518 61.9145 76.6296 61.887 76.2685ZM62.8328 79.5185C62.392 79.4074 62.3828 78.7962 62.5114 78.4722L63.0348 78.037L63.7877 78.7037C63.6867 79.2407 63.4388 79.5092 62.8328 79.5185ZM64.0081 81.5C63.246 81.2407 63.5857 80.7037 63.7234 80.1111C64.1825 79.8055 64.8896 80.2777 64.8528 80.8518C64.6508 81.1481 64.4855 81.5463 64.0081 81.5ZM65.2569 71.0555C64.9263 71.0092 64.963 70.7037 64.8712 70.4629C65.0916 69.324 66.5699 69.787 66.1383 70.6018C66.019 71.0462 65.5874 71.1944 65.2569 71.0555ZM67.0841 82.7407C66.7811 82.7962 66.6434 83.037 66.2669 82.9722C65.7343 82.8703 65.7068 82.2592 65.7802 81.8796C66.3036 80.9351 67.7269 81.8796 67.0841 82.7407ZM66.9647 69.9629C66.726 69.8055 66.8086 69.4351 66.6985 69.1944C66.8637 68.287 68.8195 68.537 68.0207 69.6388C67.9105 70.0648 67.2402 70.0648 66.9647 69.9629ZM69.4806 82.6851C69.2878 82.9907 69.1776 83.4259 68.7002 83.3796C68.3421 83.1296 68.1217 82.8148 68.0758 82.3703C68.3145 81.2407 69.9673 81.8055 69.4806 82.6851ZM69.7561 67.8611C70.2795 67.9444 70.509 68.2592 70.5733 68.8148C70.4264 69.3148 69.9489 69.25 69.5817 69.4444C68.8287 69.0462 69.1409 68.1481 69.7561 67.8611ZM70.2428 82.1574C70.5182 81.0555 71.9598 81.574 71.6752 82.4166C71.5558 82.75 71.3354 82.9537 70.9865 82.9814C70.6284 82.75 70.1877 82.6388 70.2428 82.1574Z" fill="#31287C"/>
<path d="M68.1768 100.824C70.7754 101.759 73.5208 101.944 76.2479 102.028C73.5484 101.778 71.0508 98.6018 68.1768 100.824Z" fill="#31287C"/>
<path d="M83.9885 98.213C84.0069 98.6111 84.0252 99.0278 84.0436 99.4445C84.8516 99.6204 85.6321 99.8426 86.3942 99.9074C87.8083 99.287 89.1213 98.5093 90.3426 97.5926C88.2398 97.3611 85.6137 96.4537 83.9885 98.213Z" fill="#31287C"/>
<path d="M69.196 98.8518C67.6075 95.4259 64.0172 97.6018 61.5197 97.6667L63.1908 98.7593C64.8895 100.815 67.0106 99.213 69.196 98.8518Z" fill="#31287C"/>
<path d="M94.1807 93.9259C91.2884 93.6204 85.7423 93.1852 84.2089 93.8889C84.1263 93.9259 84.0436 93.9722 83.9702 94.0278C83.9518 94.6945 83.9426 95.3796 83.9518 96.0926C86.0913 96.1574 89.4152 96.6574 92.0229 96.2037C92.7942 95.4908 93.5013 94.7222 94.1807 93.9259Z" fill="#31287C"/>
<path d="M65.3946 95.6944C64.9814 91.5 59.8302 93.75 57.0388 94.1482C58.9487 97.8611 62.5665 95.3796 65.3946 95.6944Z" fill="#31287C"/>
<path d="M97.5597 88.8148L84.1905 88.4815C84.1262 89.6759 84.0711 90.8333 84.0344 92.0278C87.9184 92.1667 92.8952 92.2222 95.3927 92.3519C96.2007 91.2315 96.9169 90.0463 97.5597 88.8148Z" fill="#31287C"/>
<path d="M55.8819 92.5277C58.2233 92.1944 60.6382 92.2314 62.5573 91.6203L60.5556 88.4352L53.1364 88.9537C54.0087 90.2037 54.3393 91.787 55.8819 92.5277Z" fill="#31287C"/>
<path d="M99.8186 83.213C95.7968 82.8704 87.744 83 84.3558 82.8704C84.3466 84.3334 84.3099 85.6945 84.2548 87L98.3035 87.2685C98.9003 85.9445 99.4054 84.5834 99.8186 83.213Z" fill="#31287C"/>
<path d="M52.7048 87.3981L59.8853 86.9814C59.316 85.75 59.2425 83.9166 58.2509 82.8518C55.7625 83.1851 52.8701 82.824 50.648 83.6666C51.502 84.824 51.6397 86.6944 52.7048 87.3981Z" fill="#31287C"/>
<path d="M100.709 79.4723L100.81 77.0741C99.0472 77.0464 96.4212 76.9908 93.7216 76.9723C93.5839 77.6019 93.2258 78.1204 92.5738 78.2593C88.9101 79.8797 88.1848 79.1482 84.3099 79.5278C84.3282 80.0834 84.3466 80.6204 84.3466 81.1482C87.8909 81.389 96.1732 81.676 100.259 81.5464C100.434 80.8519 100.581 80.1667 100.709 79.4723Z" fill="#31287C"/>
<path d="M100.994 73.2686C100.976 72.4538 100.893 71.6852 100.792 70.926C98.781 71.0556 95.053 71.0741 91.5821 71.1019C92.2983 72.1482 92.9503 73.2871 93.5379 74.5463C93.6114 74.8056 93.6849 75.0834 93.7399 75.3889C96.4211 75.4445 99.084 75.4352 100.893 75.3704L100.994 73.2686Z" fill="#31287C"/>
<path d="M51.502 69.4722L58.0397 69.6667C58.4712 68.3333 59.0956 66.8519 59.4537 65.6482L54.1556 65.0833C53.0997 66.3519 51.9611 67.7315 51.502 69.4722Z" fill="#31287C"/>
<path d="M85.9076 65.4352C87.5695 66.6204 89.057 67.9445 90.3609 69.4908L100.516 69.3426C100.167 67.7871 99.6441 66.3241 98.9646 64.9445L85.9076 65.4352Z" fill="#31287C"/>
<path d="M66.4322 62.2871L71.767 64.4908C71.2804 63.1574 71.7946 61.963 72.6852 60.8334L66.4322 62.2871Z" fill="#31287C"/>
<path d="M73.3004 63.0278C73.0617 64.3148 73.9891 65.0926 75.0818 65.6296C76.3122 65.9352 77.6803 65.6296 78.3231 64.2592C78.8189 62.7129 77.919 60.8426 76.2938 60.8796C74.7237 60.287 73.9983 61.9352 73.3004 63.0278Z" fill="#31287C"/>
<path d="M55.0922 63.6574L60.7025 64C61.3544 62.7222 62.3369 61.8333 63.1909 60.7685C61.5289 60.3704 59.7292 60.3889 58.0213 60.037C57.0296 61.1667 55.3768 62.3056 55.0922 63.6574Z" fill="#31287C"/>
<path d="M82.5928 60.4074C82.4367 61.7222 82.3449 63 83.4834 63.8426L98.1749 63.5093C97.4128 62.2222 96.5038 61.0092 95.4937 59.9167C93.6573 60.1574 86.7798 60.2315 82.5928 60.4074Z" fill="#31287C"/>
<path d="M59.5547 58.5464C62.5297 58.7964 65.6976 59.5001 67.7452 56.5741C65.9547 56.3427 64.3019 55.7778 62.5114 55.7871L59.5547 58.5464Z" fill="#31287C"/>
<path d="M82.7397 56.4815C82.6846 56.8333 82.6295 57.1852 82.5469 57.5278C82.7214 58 82.7489 58.4907 82.7306 59C85.375 59.1852 92.0229 58.6018 94.0154 58.4352C92.9228 57.4259 91.7291 56.5092 90.4711 55.6944C88.7449 55.8055 85.3934 56.1759 82.7397 56.4815Z" fill="#31287C"/>
<path d="M65.0916 54.4352C67.6075 54.4537 70.353 55.8241 72.4924 53.5463C70.0959 52.676 67.1576 52.5371 65.0916 54.4352Z" fill="#31287C"/>
<path d="M88.0838 54.3055C87.0278 53.75 85.9443 53.2685 84.8425 52.8426C84.1813 52.7778 83.4927 52.8148 82.8224 52.9167C82.8316 53.4722 82.8591 54.037 82.8499 54.6204C84.5027 55 86.3392 54.3704 88.0838 54.3055Z" fill="#31287C"/>
<path d="M78.9383 51.3796C76.6428 51.3981 73.833 50.7685 72.0884 51.6666L74.8063 52.4166L78.9383 51.3796Z" fill="#31287C"/>
<path d="M77.8365 45.2129L78.571 45C78.6169 45.9722 79.4525 47.0278 79.0577 48.0463C78.7271 50.1296 80.7656 50.0926 82.0143 50.1389C82.299 47.8518 85.1546 45.3796 83.0152 43.2129C80.1228 42.3426 77.1294 42.0092 73.9983 42.4259C71.8589 44.1852 72.5934 47.2222 73.0985 49.8518C75.8439 50.287 76.1194 46.4629 77.8365 45.2129ZM80.2789 45.5185C80.6187 44.9815 81.7572 45.037 81.7297 45.8704C81.5369 46.1666 81.3257 46.3796 80.9676 46.3981C80.6187 46.1574 80.2146 46 80.2789 45.5185ZM75.9633 44.7407C75.6786 45.1666 75.3389 45.1852 74.9073 45.0741C74.6962 45.0092 74.7237 44.7037 74.6778 44.5C74.7696 43.4537 76.0367 44.1111 75.9633 44.7407Z" fill="#31287C"/>
<path d="M134.729 36.1018L136.602 31.7962L131.956 32.2962L134.729 36.1018Z" fill="#31287C"/>
<path d="M120.919 15.8519L116.631 17.6945L120.368 20.5278L120.919 15.8519Z" fill="#31287C"/>
<path d="M124.381 23.9908L125.262 19.3889L120.855 20.9074L124.381 23.9908Z" fill="#31287C"/>
<path d="M128.136 27.7685L129.348 23.2407L124.84 24.4166L128.136 27.7685Z" fill="#31287C"/>
<path d="M131.571 31.8055L133.122 27.3703L128.54 28.2222L131.571 31.8055Z" fill="#31287C"/>
<path d="M27.3988 24.4537L22.8903 23.2778L24.084 27.8056L27.3988 24.4537Z" fill="#31287C"/>
<path d="M23.6616 28.2686L19.0889 27.4167L20.6131 31.8519L23.6616 28.2686Z" fill="#31287C"/>
<path d="M20.2275 32.3333L15.6088 31.8333L17.4453 36.1481L20.2275 32.3333Z" fill="#31287C"/>
<path d="M35.626 17.7315L31.3563 15.8889L31.8797 20.5556L35.626 17.7315Z" fill="#31287C"/>
<path d="M31.3838 20.9352L26.9856 19.4352L27.8395 24.0371L31.3838 20.9352Z" fill="#31287C"/>
<path d="M40.0977 14.8519L35.9657 12.6852L36.131 17.3797L40.0977 14.8519Z" fill="#31287C"/>
<path d="M116.301 12.6667L112.178 14.8148L116.117 17.3518L116.301 12.6667Z" fill="#31287C"/>
<path d="M40.8048 9.85187L40.6211 14.5278L44.7439 12.3148L40.8048 9.85187Z" fill="#31287C"/>
<path d="M111.489 9.82404L107.532 12.287L111.645 14.5092L111.489 9.82404Z" fill="#31287C"/>
<path d="M45.8366 7.37033L45.2948 12.037L49.6013 10.1111L45.8366 7.37033Z" fill="#31287C"/>
<path d="M106.476 7.34259L102.702 10.1111L106.981 12.0093L106.476 7.34259Z" fill="#31287C"/>
<path d="M51.0337 5.2778L50.1614 9.89817L54.578 8.30558L51.0337 5.2778Z" fill="#31287C"/>
<path d="M101.279 5.25931L97.725 8.29635L102.132 9.87968L101.279 5.25931Z" fill="#31287C"/>
<path d="M56.3685 3.60184L55.1656 8.12036L59.6833 6.87961L56.3685 3.60184Z" fill="#31287C"/>
<path d="M95.9437 3.58334L92.6197 6.87038L97.1282 8.10186L95.9437 3.58334Z" fill="#31287C"/>
<path d="M61.8227 2.32404L60.2801 6.74996L64.8712 5.84255L61.8227 2.32404Z" fill="#31287C"/>
<path d="M90.4527 2.2963L87.3859 5.83333L91.9862 6.73148L90.4527 2.2963Z" fill="#31287C"/>
<path d="M67.3504 1.45374L65.4864 5.75003L70.1418 5.20374L67.3504 1.45374Z" fill="#31287C"/>
<path d="M84.8884 1.4259L82.097 5.20368L86.7432 5.73146L84.8884 1.4259Z" fill="#31287C"/>
<path d="M79.2872 1L76.7805 4.9537L81.445 5.12963L79.2872 1Z" fill="#31287C"/>
<path d="M72.9332 1L70.7386 5.13889L75.4307 4.9537L72.9332 1Z" fill="#31287C"/>
</svg>
